<svg xmlns="http://www.w3.org/2000/svg" xmlns:xlink="http://www.w3.org/1999/xlink" width="40" height="40" viewBox="0 0 40 40">
  <defs>
    <clipPath id="clip-path">
      <rect id="長方形_11" data-name="長方形 11" width="40" height="40" transform="translate(91 510.501)" fill="#fff"/>
    </clipPath>
  </defs>
  <g id="マスクグループ_3" data-name="マスクグループ 3" transform="translate(-91 -510.501)" clip-path="url(#clip-path)">
    <g id="github-icon" transform="translate(91 511.488)">
      <path id="パス_9" data-name="パス 9" d="M19.751,0a19.753,19.753,0,0,0-6.244,38.492c.987.183,1.349-.428,1.349-.95,0-.471-.018-2.027-.027-3.677-5.495,1.195-6.654-2.33-6.654-2.33a5.23,5.23,0,0,0-2.193-2.89c-1.792-1.226.135-1.2.135-1.2a4.152,4.152,0,0,1,3.028,2.035c1.762,3.019,4.62,2.146,5.747,1.642a4.207,4.207,0,0,1,1.254-2.641c-4.387-.5-9-2.193-9-9.761a7.644,7.644,0,0,1,2.035-5.3,7.1,7.1,0,0,1,.191-5.227s1.659-.531,5.433,2.025a18.734,18.734,0,0,1,9.891,0c3.77-2.555,5.426-2.025,5.426-2.025a7.088,7.088,0,0,1,.194,5.227,7.629,7.629,0,0,1,2.033,5.3c0,7.586-4.62,9.256-9.018,9.745a4.721,4.721,0,0,1,1.34,3.658c0,2.643-.023,4.769-.023,5.42,0,.526.356,1.142,1.357.948A19.754,19.754,0,0,0,19.751,0ZM7.4,28.135c-.044.1-.2.128-.339.06s-.224-.2-.177-.3.2-.129.34-.062S7.447,28.037,7.4,28.135ZM8.369,29c-.094.087-.278.047-.4-.091a.3.3,0,0,1-.058-.41c.1-.087.276-.046.405.091S8.467,28.914,8.369,29Zm.666,1.109c-.121.084-.319.005-.441-.17s-.121-.386,0-.471.318-.008.442.166S9.159,30.025,9.035,30.111ZM10.163,31.4c-.108.119-.339.087-.508-.075s-.221-.385-.112-.5.341-.086.512.076S10.278,31.278,10.163,31.4Zm1.457.434c-.048.155-.27.225-.494.159s-.37-.249-.324-.405.27-.229.495-.159S11.666,31.672,11.619,31.83Zm1.658.184c.006.163-.184.3-.419.3s-.427-.127-.43-.287.185-.3.422-.3S13.277,31.852,13.277,32.014Zm1.629-.062c.028.159-.135.322-.368.366s-.442-.056-.471-.214.138-.326.367-.368S14.876,31.789,14.906,31.951Z" fill="#fff"/>
    </g>
  </g>
</svg>
