<svg xmlns="http://www.w3.org/2000/svg" xmlns:xlink="http://www.w3.org/1999/xlink" width="40" height="40" viewBox="0 0 40 40">
  <defs>
    <clipPath id="clip-path">
      <rect id="長方形_12" data-name="長方形 12" width="40" height="40" transform="translate(179 511)" fill="#fff"/>
    </clipPath>
  </defs>
  <g id="マスクグループ_2" data-name="マスクグループ 2" transform="translate(-179 -511)" clip-path="url(#clip-path)">
    <g id="twitter" transform="translate(179 514.746)">
      <path id="パス_8" data-name="パス 8" d="M40,4a16.408,16.408,0,0,1-4.713,1.292A8.231,8.231,0,0,0,38.895.754a16.434,16.434,0,0,1-5.211,1.991A8.214,8.214,0,0,0,19.7,10.231,23.3,23.3,0,0,1,2.785,1.656a8.215,8.215,0,0,0,2.54,10.956,8.174,8.174,0,0,1-3.717-1.026c0,.034,0,.069,0,.1A8.212,8.212,0,0,0,8.19,19.736a8.226,8.226,0,0,1-3.706.141,8.215,8.215,0,0,0,7.666,5.7A16.466,16.466,0,0,1,1.958,29.089,16.7,16.7,0,0,1,0,28.974a23.228,23.228,0,0,0,12.58,3.687c15.095,0,23.349-12.5,23.349-23.349q0-.534-.024-1.062A16.68,16.68,0,0,0,40,4" transform="translate(0 -0.154)" fill="#fff"/>
    </g>
  </g>
</svg>
